<svg width="203" height="205" viewBox="0 0 203 205" fill="none" xmlns="http://www.w3.org/2000/svg">
<path d="M201 102.5C201 158.023 156.434 203 101.5 203C46.5661 203 2 158.023 2 102.5C2 46.9769 46.5661 2 101.5 2C156.434 2 201 46.9769 201 102.5Z" fill="white" stroke="url(#paint0_linear)" stroke-width="4"/>
<path d="M103.092 130.512C103.412 131.344 103.572 132.112 103.572 132.816C103.572 134.48 103.028 135.856 101.94 136.944C100.852 137.968 99.6035 138.48 98.1955 138.48C97.0435 138.48 95.9875 138.128 95.0275 137.424C94.1315 136.72 93.4275 135.76 92.9155 134.544L87.9235 122.928H59.3155L54.3235 134.64C53.8755 135.856 53.1715 136.816 52.2115 137.52C51.3155 138.16 50.3235 138.48 49.2355 138.48C47.5715 138.48 46.2915 138.032 45.3955 137.136C44.5635 136.24 44.1475 135.024 44.1475 133.488C44.1475 132.912 44.2435 132.304 44.4355 131.664L68.3395 74.256C68.8515 72.976 69.6195 71.984 70.6435 71.28C71.6675 70.576 72.8195 70.288 74.0995 70.416C75.2515 70.416 76.3075 70.768 77.2675 71.472C78.2915 72.112 79.0275 73.04 79.4755 74.256L103.092 130.512ZM83.2195 111.888L73.5235 89.424L64.0195 111.888H83.2195ZM151.079 70.8C152.807 70.8 154.215 71.312 155.303 72.336C156.391 73.36 156.935 74.704 156.935 76.368C156.935 78.032 156.391 79.376 155.303 80.4C154.215 81.36 152.807 81.84 151.079 81.84H136.007V132.144C136.007 133.808 135.399 135.216 134.183 136.368C132.967 137.456 131.463 138 129.671 138C127.879 138 126.407 137.456 125.255 136.368C124.103 135.216 123.527 133.808 123.527 132.144V81.84H108.455C106.727 81.84 105.319 81.328 104.231 80.304C103.143 79.28 102.599 77.936 102.599 76.272C102.599 74.672 103.143 73.36 104.231 72.336C105.383 71.312 106.791 70.8 108.455 70.8H151.079Z" fill="black"/>
<defs>
<linearGradient id="paint0_linear" x1="101.5" y1="0" x2="101.5" y2="205" gradientUnits="userSpaceOnUse">
<stop stop-color="#D38F29"/>
<stop offset="1" stop-color="#B3213B"/>
</linearGradient>
</defs>
</svg>
