<svg xmlns="http://www.w3.org/2000/svg" x="0px" y="0px" width="48" height="48" viewBox="0 0 172 172" style=" fill:#000000;"><g fill="none" fill-rule="nonzero" stroke="none" stroke-width="1" stroke-linecap="butt" stroke-linejoin="miter" stroke-miterlimit="10" stroke-dasharray="" stroke-dashoffset="0" font-family="none" font-weight="none" font-size="none" text-anchor="none" style="mix-blend-mode: normal"><path d="M0,172v-172h172v172z" fill="none"></path><g><path d="M146.91667,17.91667h-121.83333l10.75,121.83333l50.16667,14.33333l50.16667,-14.33333l10.75,-121.83333z" fill="#0277bd"></path><path d="M86,28.66667v114.30833l40.13333,-11.46667l8.95833,-102.84167z" fill="#039be5"></path><path d="M118.60833,46.58333h-32.60833v14.33333h17.55833l-1.075,14.33333h-16.48333v14.33333h15.76667l-1.075,16.125l-14.69167,5.01667v15.05l28.30833,-9.31667l2.50833,-41.20833v0z" fill="#ffffff"></path><path d="M86,46.58333v14.33333h-31.89167l-1.075,-14.33333zM69.51667,75.25l0.71667,14.33333h15.76667v-14.33333zM70.95,96.75h-14.33333l1.075,19.70833l28.30833,9.31667v-15.05l-14.69167,-5.01667z" fill="#eeeeee"></path></g></g></svg>