<svg xmlns="http://www.w3.org/2000/svg" x="0px" y="0px" width="48" height="48" viewBox="0 0 172 172" style=" fill:#000000;"><g fill="none" fill-rule="nonzero" stroke="none" stroke-width="1" stroke-linecap="butt" stroke-linejoin="miter" stroke-miterlimit="10" stroke-dasharray="" stroke-dashoffset="0" font-family="none" font-weight="none" font-size="none" text-anchor="none" style="mix-blend-mode: normal"><path d="M0,172v-172h172v172z" fill="none"></path><g fill="#f4511e"><path d="M151.21667,79.19167l-58.40833,-58.40833c-1.79167,-1.79167 -4.3,-2.86667 -6.80833,-2.86667v0c-2.50833,0 -5.01667,1.075 -6.80833,2.86667l-12.54167,12.54167l14.69167,14.69167c1.43333,-0.71667 2.86667,-1.075 4.65833,-1.075c6.09167,0 10.75,4.65833 10.75,10.75c0,1.79167 -0.35833,3.225 -1.075,4.65833l14.33333,14.33333c1.43333,-0.71667 2.86667,-1.075 4.65833,-1.075c6.09167,0 10.75,4.65833 10.75,10.75c0,6.09167 -4.65833,10.75 -10.75,10.75c-6.09167,0 -10.75,-4.65833 -10.75,-10.75c0,-1.79167 0.35833,-3.225 1.075,-4.65833l-14.33333,-14.33333c-0.35833,0 -0.71667,0.35833 -1.075,0.35833v37.26667c4.3,1.43333 7.16667,5.375 7.16667,10.03333c0,6.09167 -4.65833,10.75 -10.75,10.75c-6.09167,0 -10.75,-4.65833 -10.75,-10.75c0,-4.65833 2.86667,-8.6 7.16667,-10.03333v-37.625c-4.3,-1.43333 -7.16667,-5.375 -7.16667,-10.03333c0,-1.79167 0.35833,-3.225 1.075,-4.65833l-14.69167,-14.69167l-40.85,41.20833c-1.79167,1.79167 -2.86667,4.3 -2.86667,6.80833c0,2.50833 1.075,5.01667 2.86667,6.80833l58.40833,58.40833v0c1.79167,1.79167 4.3,2.86667 6.80833,2.86667c2.50833,0 5.01667,-1.075 6.80833,-2.86667l58.40833,-58.40833c1.79167,-1.79167 2.86667,-4.3 2.86667,-6.80833c0,-2.50833 -1.075,-5.01667 -2.86667,-6.80833z"></path></g></g></svg>