<svg xmlns="http://www.w3.org/2000/svg" x="0px" y="0px" width="48" height="48" viewBox="0 0 172 172" style=" fill:#000000;"><g fill="none" fill-rule="nonzero" stroke="none" stroke-width="1" stroke-linecap="butt" stroke-linejoin="miter" stroke-miterlimit="10" stroke-dasharray="" stroke-dashoffset="0" font-family="none" font-weight="none" font-size="none" text-anchor="none" style="mix-blend-mode: normal"><path d="M0,172v-172h172v172z" fill="none"></path><g><path d="M146.91667,17.91667h-121.83333l10.75,121.83333l50.16667,14.33333l50.16667,-14.33333l10.75,-121.83333z" fill="#e65100"></path><path d="M86,28.66667v114.30833l40.13333,-11.46667l8.95833,-102.84167z" fill="#ff6d00"></path><path d="M86,89.58333v-14.33333h30.81667l-2.50833,41.20833l-28.30833,9.31667v-15.05l14.69167,-5.01667l1.075,-16.125zM117.89167,60.91667l1.075,-14.33333h-32.96667v14.33333z" fill="#ffffff"></path><path d="M86,110.725v15.05l-28.30833,-9.31667l-1.43333,-19.70833h14.33333l0.71667,8.95833zM68.44167,60.91667h17.55833v-14.33333h-32.60833l2.50833,43h30.1v-14.33333h-16.48333z" fill="#eeeeee"></path></g></g></svg>