<svg xmlns="http://www.w3.org/2000/svg" x="0px" y="0px" width="48" height="48" viewBox="0 0 172 172" style=" fill:#000000;"><g fill="none" fill-rule="nonzero" stroke="none" stroke-width="1" stroke-linecap="butt" stroke-linejoin="miter" stroke-miterlimit="10" stroke-dasharray="" stroke-dashoffset="0" font-family="none" font-weight="none" font-size="none" text-anchor="none" style="mix-blend-mode: normal"><path d="M0,172v-172h172v172z" fill="none"></path><g><path d="M21.5,150.5v-129h129v129z" fill="#ffd600"></path><path d="M105.8445,118.06008c2.47967,4.02767 5.17433,7.88692 10.88258,7.88692c4.7945,0 7.31,-2.38292 7.31,-5.67958c0,-3.94525 -2.6015,-5.34633 -7.87617,-7.64325l-2.89175,-1.23267c-8.34558,-3.54033 -13.89617,-7.9765 -13.89617,-17.34692c0,-8.63583 6.61125,-15.20767 16.942,-15.20767c7.35658,0 12.642,2.54775 16.45467,9.21992l-9.0085,5.75842c-1.98158,-3.54033 -4.12442,-4.93425 -7.44617,-4.93425c-3.38983,0 -5.53625,2.13925 -5.53625,4.93425c0,3.45433 2.15,4.85183 7.11292,6.99108l2.89175,1.23267c9.83625,4.18892 15.38325,8.46742 15.38325,18.08508c0,10.363 -8.18433,16.04258 -19.17083,16.04258c-10.74642,0 -16.84883,-5.39292 -20.24583,-12.06867zM64.328,118.35392c1.81317,3.2465 4.56875,5.74408 8.53192,5.74408c3.79117,0 5.97342,-1.49783 5.97342,-7.32075v-37.94392h11.94325v39.77858c0,12.06508 -6.99825,17.55475 -17.21792,17.55475c-9.23425,0 -15.89925,-6.2565 -18.61542,-12.06867z" fill="#000001"></path></g></g></svg>