<?xml version="1.0" encoding="iso-8859-1"?>
<!-- Generator: Adobe Illustrator 19.0.0, SVG Export Plug-In . SVG Version: 6.00 Build 0)  -->
<svg xmlns="http://www.w3.org/2000/svg" xmlns:xlink="http://www.w3.org/1999/xlink" version="1.1" id="Capa_1" x="0px" y="0px" viewBox="0 0 512 512" style="enable-background:new 0 0 512 512;" xml:space="preserve" width="512px" height="512px">
<g>
	<g>
		<g>
			<path d="M117.735,424.885L90.509,512h418.849l-27.227-87.115c-6.102-19.546-18.036-36.443-33.553-48.913V129.718     c0-36.69-20.051-69.748-52.472-86.709l-4.641-5.822C372.554,13.56,344.344,0,314.079,0h-14.146     c-34.346,0-65.924,11.825-91.12,31.463C186.112,11.182,157.25,0,126.514,0C58.211,0,2.642,55.568,2.642,123.871     s55.568,123.871,123.871,123.871c8.366,0,16.657-0.883,24.775-2.535v130.766C135.77,388.452,123.837,405.347,117.735,424.885z      M195.361,495.485c-5.086-4.18-19.299-17.938-19.299-41.291c0-21.553,12.156-39.572,18.548-47.558l19.918,9.959l-15.847,31.703     l60.671,47.187H195.361z M184.667,246.33c-9.77-3.32-16.863-12.486-16.863-23.362c0-10.752,6.929-19.836,16.516-23.255v39.771     C184.32,241.796,184.535,244.051,184.667,246.33z M186.912,263.68c6.921,32.338,27.425,59.639,55.214,75.767v8.556l-42.645,6.557     c-11.215,1.725-21.876,5.376-31.678,10.537V255.785h0.001C173.287,259.939,179.786,262.69,186.912,263.68z M432.061,255.793     v109.321c-9.803-5.169-20.464-8.811-31.678-10.537l-42.645-6.566v-8.555c27.789-16.128,48.294-43.429,55.214-75.768     C420.079,262.698,426.578,259.939,432.061,255.793z M415.199,246.33c0.131-2.279,0.346-4.534,0.346-6.846v-39.771     c9.588,3.418,16.516,12.503,16.516,23.255C432.062,233.844,424.968,243.01,415.199,246.33z M399.032,239.484     c0,54.644-44.453,99.097-99.097,99.097s-99.097-44.453-99.097-99.097v-33.032h8.256v16.516c0,13.659,11.115,24.775,24.775,24.775     h33.032c13.659,0,24.775-11.115,24.775-24.775h16.516c0,13.659,11.115,24.775,24.775,24.775h33.032     c13.659,0,24.775-11.115,24.775-24.775v-16.516h8.258V239.484z M341.223,347.343v6.549c-1.421,4.302-10.1,25.98-41.291,25.98     c-31.182,0-39.845-21.578-41.291-25.98v-6.549c12.842,4.938,26.732,7.754,41.291,7.754     C314.491,355.097,328.381,352.281,341.223,347.343z M225.609,222.968v-16.516h0.001v-8.258h49.548v24.775     c0,4.558-3.7,8.258-8.258,8.258h-33.032C229.31,231.227,225.609,227.527,225.609,222.968z M374.255,206.452v16.516     c0,4.558-3.7,8.258-8.258,8.258h-33.032c-4.558,0-8.258-3.7-8.258-8.258v-24.775h49.548L374.255,206.452L374.255,206.452z      M399.029,189.936h-8.258v-8.258H308.19v24.775h-16.516v-24.775h-82.581v8.258h-8.258V173.42c0-4.558,3.7-8.258,8.258-8.258     h181.677c4.558,0,8.258,3.7,8.258,8.258V189.936z M219.507,443.565l17.185-34.362l-33.619-16.813l9.233-23.09l7.828-1.197     l54.487,118.33L219.507,443.565z M296.959,495.483l-59.854-129.99l7.879-1.213c6.491,13.873,23.139,32.107,54.949,32.107     c31.81,0,48.458-18.234,54.949-32.107l7.87,1.213l-59.847,129.99H296.959z M404.512,495.486h-64l14.823-11.529l-10.15-13.031     l-19.944,15.517l54.479-118.33l7.846,1.196l9.232,23.082l-33.619,16.813l17.185,34.362l-23.047,17.928l10.149,13.032     l33.727-26.236l-15.848-31.703l19.943-9.968c6.376,7.944,18.514,25.881,18.514,47.575     C423.803,477.623,409.615,491.314,404.512,495.486z M466.374,429.807l20.521,65.677h-60.003     c6.838-9.373,13.428-23.098,13.428-41.291c0-32.075-20.612-56.535-25.947-62.323l-7.574-18.936     C434.753,380.441,457.645,401.886,466.374,429.807z M299.932,16.515h14.146v0.001c25.228,0,48.723,11.297,64.487,30.984     l6.896,8.621l1.618,0.818c27.747,13.874,44.982,41.761,44.982,72.778v60.432c-4.823-3.65-10.381-6.384-16.516-7.63v-9.1     c0-13.659-11.115-24.775-24.775-24.775H209.094c-13.659,0-24.775,11.115-24.775,24.775v9.092     c-6.136,1.256-11.694,3.98-16.516,7.631v-41.497C167.803,75.792,227.08,16.515,299.932,16.515z M126.514,231.226     c-59.194,0-107.355-48.161-107.355-107.355c0-59.194,48.162-107.354,107.355-107.354c25.914,0,50.325,9.133,69.748,25.807     c-27.697,27.021-44.973,64.669-44.973,106.322v79.666C143.211,230.218,134.92,231.226,126.514,231.226z M193.065,372.935     l-7.573,18.927c-5.327,5.797-25.946,30.258-25.946,62.332c0,18.192,6.59,31.917,13.436,41.291H112.97l20.521-65.678     C142.228,401.886,165.12,380.441,193.065,372.935z" fill="#FFFFFF"/>
			<path d="M299.932,305.549c-18.217,0-33.032-14.815-33.032-33.032h-16.516c0,27.326,22.222,49.548,49.548,49.548     s49.548-22.222,49.548-49.548h-16.516C332.965,290.734,318.15,305.549,299.932,305.549z" fill="#FFFFFF"/>
			<path d="M134.771,100.617V33.032h-16.516v67.584c-9.588,3.418-16.516,12.503-16.516,23.255c0,3.815,0.934,7.383,2.485,10.612     l-33.099,33.098l11.677,11.677l33.099-33.099c3.229,1.553,6.796,2.485,10.612,2.485c13.659,0,24.775-11.115,24.775-24.775     C151.287,113.119,144.359,104.035,134.771,100.617z M126.514,132.129c-4.558,0-8.258-3.7-8.258-8.258s3.7-8.258,8.258-8.258     c4.559,0,8.258,3.7,8.258,8.258S131.072,132.129,126.514,132.129z" fill="#FFFFFF"/>
		</g>
	</g>
</g>
<g>
</g>
<g>
</g>
<g>
</g>
<g>
</g>
<g>
</g>
<g>
</g>
<g>
</g>
<g>
</g>
<g>
</g>
<g>
</g>
<g>
</g>
<g>
</g>
<g>
</g>
<g>
</g>
<g>
</g>
</svg>
